<?xml version="1.0" encoding="utf-8"?><svg version="1.1" id="Layer_1" xmlns="http://www.w3.org/2000/svg" xmlns:xlink="http://www.w3.org/1999/xlink" x="0px" y="0px" viewBox="0 0 32 32" style="enable-background:new 0 0 32 32;" xml:space="preserve"><style type="text/css">.st0{clip-path:url(#SVGID_2_);}.st1{clip-path:url(#SVGID_4_);}.st2{fill:#ED145B;}</style><g><defs><rect id="SVGID_1_" width="32" height="32"/></defs><clipPath id="SVGID_2_"><use xlink:href="#SVGID_1_"  style="overflow:visible;"/></clipPath><g class="st0"><g id="Aparat_logo_icon"><g id="aparat-logo-horizontal-en" transform="translate(0 0)"><defs><rect id="SVGID_3_" width="32" height="32"/></defs><clipPath id="SVGID_4_"><use xlink:href="#SVGID_3_"  style="overflow:visible;"/></clipPath><g id="Group_2572" transform="translate(0 0)" class="st1"><path id="Path_1513" d="M13.8,1l-2.9-0.8C8.2-0.5,5.5,1,4.8,3.7c0,0,0,0,0,0L4.1,6.5C6.5,3.5,10,1.5,13.8,1"/><path id="Path_1514" d="M0.9,18.4l-0.7,2.7c-0.7,2.6,0.9,5.4,3.5,6.1c0,0,0,0,0,0l2.8,0.8C3.5,25.6,1.5,22.2,0.9,18.4"/><path id="Path_1515" d="M28.3,4.8L25.2,4c3.2,2.5,5.3,6.1,5.8,10.2l0.9-3.3C32.5,8.2,31,5.5,28.3,4.8C28.3,4.8,28.3,4.8,28.3,4.8"/><path id="Path_1516" d="M18.1,31l3,0.8c2.6,0.7,5.4-0.9,6.1-3.5l0.9-3.2C25.6,28.3,22.1,30.4,18.1,31"/><path id="Path_1517" class="st2" d="M16,2.1C8.3,2.1,2.1,8.3,2.1,16l0,0c0,7.7,6.2,13.9,13.9,13.9S29.9,23.7,29.9,16C29.9,8.3,23.7,2.1,16,2.1L16,2.1 M8.1,9c0.4-2.1,2.5-3.6,4.6-3.1c0,0,0,0,0,0c2.1,0.4,3.6,2.5,3.1,4.6v0c-0.4,2.1-2.5,3.6-4.6,3.1h0C9.1,13.3,7.7,11.2,8.1,9L8.1,9 M13.9,21c-0.4,2.1-2.5,3.6-4.6,3.1c0,0,0,0,0,0c-2.1-0.4-3.6-2.5-3.1-4.6c0,0,0,0,0,0c0.4-2.1,2.5-3.6,4.6-3.1h0C12.9,16.8,14.3,18.9,13.9,21C13.9,21,13.9,21,13.9,21 M15.6,17.8c-1-0.2-1.6-1.1-1.4-2.1c0,0,0,0,0,0c0.2-1,1.1-1.6,2.1-1.4c0,0,0,0,0,0c1,0.2,1.6,1.1,1.4,2.1c0,0,0,0,0,0C17.5,17.4,16.5,18,15.6,17.8C15.6,17.8,15.6,17.8,15.6,17.8 M23.9,23c-0.4,2.1-2.5,3.6-4.6,3.1c0,0,0,0,0,0c-2.1-0.4-3.6-2.5-3.1-4.6v0c0.4-2.1,2.5-3.6,4.6-3.1h0C22.9,18.7,24.3,20.8,23.9,23C23.9,23,23.9,23,23.9,23 M21.2,15.6c-2.1-0.4-3.6-2.5-3.1-4.6v0c0.4-2.1,2.5-3.6,4.6-3.1c0,0,0,0,0,0c2.1,0.4,3.6,2.5,3.1,4.6c0,0,0,0,0,0C25.5,14.6,23.4,16,21.2,15.6C21.2,15.6,21.2,15.6,21.2,15.6"/></g></g></g></g></g></svg>