<svg width="16" height="16" viewBox="0 0 16 16" fill="none" xmlns="http://www.w3.org/2000/svg">
<path fill-rule="evenodd" clip-rule="evenodd" d="M2.16667 0.5H13.8333C14.75 0.5 15.5 1.25 15.5 2.16667V13.8333C15.5 14.75 14.75 15.5 13.8333 15.5H2.16667C1.25 15.5 0.5 14.75 0.5 13.8333V2.16667C0.5 1.25 1.25 0.5 2.16667 0.5ZM3.83333 11.3333C3.83333 11.7917 4.20833 12.1667 4.66667 12.1667C5.125 12.1667 5.5 11.7917 5.5 11.3333V7.16667C5.5 6.70833 5.125 6.33333 4.66667 6.33333C4.20833 6.33333 3.83333 6.70833 3.83333 7.16667V11.3333ZM8 12.1667C7.54167 12.1667 7.16667 11.7917 7.16667 11.3333V4.66667C7.16667 4.20833 7.54167 3.83333 8 3.83333C8.45833 3.83333 8.83333 4.20833 8.83333 4.66667V11.3333C8.83333 11.7917 8.45833 12.1667 8 12.1667ZM10.5 11.3333C10.5 11.7917 10.875 12.1667 11.3333 12.1667C11.7917 12.1667 12.1667 11.7917 12.1667 11.3333V9.66667C12.1667 9.20833 11.7917 8.83333 11.3333 8.83333C10.875 8.83333 10.5 9.20833 10.5 9.66667V11.3333Z" fill="#64748B"/>
</svg>
