<?xml version="1.0" encoding="utf-8"?>
<!-- Generator: Adobe Illustrator 25.3.1, SVG Export Plug-In . SVG Version: 6.00 Build 0)  -->
<svg version="1.1" id="Layer_1" xmlns="http://www.w3.org/2000/svg" xmlns:xlink="http://www.w3.org/1999/xlink" x="0px" y="0px"
	 viewBox="0 0 256 256" style="enable-background:new 0 0 256 256;" xml:space="preserve">
<style type="text/css">
	.st0{fill:none;stroke:#E30613;stroke-width:7.6663;stroke-miterlimit:10;}
	.st1{fill:#142137;}
	.st2{fill:#D6B36A;}
	.st3{fill:#DFE1E5;}
	.st4{fill:none;stroke:#D6B36A;stroke-width:14.2432;stroke-miterlimit:10;}
	.st5{fill:none;stroke:#DFE1E5;stroke-width:14.2432;stroke-miterlimit:10;}
	.st6{fill:none;stroke:#D6B36A;stroke-width:37.7622;stroke-miterlimit:10;}
	.st7{fill:none;stroke:#DFE1E5;stroke-width:37.7622;stroke-miterlimit:10;}
	.st8{fill:none;stroke:#D6B36A;stroke-width:15.1671;stroke-miterlimit:10;}
	.st9{fill:none;stroke:#DFE1E5;stroke-width:15.1671;stroke-miterlimit:10;}
	.st10{fill:none;stroke:#D6B36A;stroke-width:10.1827;stroke-miterlimit:10;}
	.st11{fill:none;stroke:#DFE1E5;stroke-width:10.1827;stroke-miterlimit:10;}
	.st12{fill:none;stroke:#D6B36A;stroke-width:12;stroke-miterlimit:10;}
	.st13{fill:none;stroke:#DFE1E5;stroke-width:12;stroke-miterlimit:10;}
	.st14{fill:none;stroke:#DFE1E5;stroke-width:22;stroke-miterlimit:10;}
	.st15{fill:none;stroke:#D6B36A;stroke-width:22;stroke-miterlimit:10;}
	.st16{fill:none;stroke:#E30613;stroke-width:7.831;stroke-miterlimit:10;}
</style>
<g>
	<g>
		<path class="st1" d="M144.9,229.76h-33.82l-0.83-0.21c-34.74-8.77-56.62-11.4-72.59-13.31c-6.89-0.83-12.84-1.54-18.29-2.56
			c-7.86-1.47-13.28-4.91-16.58-10.21C0.1,200.78,0,191.95,0,189.14V44.67c0-18.43,17.96-18.43,31.08-18.43
			c41.72,0,86.46,18.23,96.91,22.75c10.45-4.52,55.19-22.75,96.91-22.75c13.11,0,31.08,0,31.08,18.43v144.47
			c0,0,0.5,9.01-2.55,14.33c-3.3,5.3-8.95,8.74-16.81,10.21c-5.46,1.02-11.41,1.74-18.29,2.56c-15.98,1.92-37.86,4.54-72.59,13.31
			L144.9,229.76z M135.52,216.01h7.67c35.11-8.82,57.27-11.48,73.49-13.42c6.65-0.8,12.39-1.49,17.4-2.43
			c2.65-0.5,5.88-1.57,7.38-3.87c0.94-1.81,0.93-3.81,0.85-4.22l-0.02-1.23l-0.06-0.97V44.67c0-2.49-0.33-2.65-0.87-2.93
			c-3.5-1.75-13.25-1.75-16.45-1.75c-36.35,0-76.71,15.49-89.38,20.75V216.01z M112.78,216.01h8.99V61.29
			c-10.93-4.63-52.97-21.3-90.69-21.3c-3.2,0-12.95,0-16.45,1.75c-0.55,0.27-0.87,0.44-0.87,2.93v146.29v0.71
			c0.04,0.76,0.2,3.48,1.09,4.71c1.5,2.3,4.41,3.29,7.05,3.79c5.01,0.94,10.75,1.63,17.4,2.43
			C55.51,204.53,77.67,207.19,112.78,216.01z"/>
	</g>
</g>
</svg>
