<?xml version="1.0" encoding="utf-8"?>
<!-- Generator: Adobe Illustrator 25.3.1, SVG Export Plug-In . SVG Version: 6.00 Build 0)  -->
<svg version="1.1" id="Layer_1" xmlns="http://www.w3.org/2000/svg" xmlns:xlink="http://www.w3.org/1999/xlink" x="0px" y="0px"
	 viewBox="0 0 256 256" style="enable-background:new 0 0 256 256;" xml:space="preserve">
<style type="text/css">
	.st0{fill:none;stroke:#E30613;stroke-width:7.6663;stroke-miterlimit:10;}
	.st1{fill:#142137;}
	.st2{fill:#D6B36A;}
	.st3{fill:#DFE1E5;}
	.st4{fill:none;stroke:#D6B36A;stroke-width:14.2432;stroke-miterlimit:10;}
	.st5{fill:none;stroke:#DFE1E5;stroke-width:14.2432;stroke-miterlimit:10;}
	.st6{fill:none;stroke:#D6B36A;stroke-width:37.7622;stroke-miterlimit:10;}
	.st7{fill:none;stroke:#DFE1E5;stroke-width:37.7622;stroke-miterlimit:10;}
	.st8{fill:none;stroke:#D6B36A;stroke-width:15.1671;stroke-miterlimit:10;}
	.st9{fill:none;stroke:#DFE1E5;stroke-width:15.1671;stroke-miterlimit:10;}
	.st10{fill:none;stroke:#D6B36A;stroke-width:10.1827;stroke-miterlimit:10;}
	.st11{fill:none;stroke:#DFE1E5;stroke-width:10.1827;stroke-miterlimit:10;}
	.st12{fill:none;stroke:#D6B36A;stroke-width:12;stroke-miterlimit:10;}
	.st13{fill:none;stroke:#DFE1E5;stroke-width:12;stroke-miterlimit:10;}
	.st14{fill:none;stroke:#DFE1E5;stroke-width:22;stroke-miterlimit:10;}
	.st15{fill:none;stroke:#D6B36A;stroke-width:22;stroke-miterlimit:10;}
	.st16{fill:none;stroke:#E30613;stroke-width:7.831;stroke-miterlimit:10;}
</style>
<g>
	<g>
		<path class="st1" d="M213.24,128.69H45.9V16.98h167.34V128.69z M57.94,116.65h143.25V29.02H57.94V116.65z"/>
	</g>
	<g>
		<polygon class="st1" points="158.3,88.64 130.57,68.36 101.06,88.03 101.06,26.48 113.11,26.48 113.11,65.53 130.89,53.67 
			146.26,64.92 146.26,26.48 158.3,26.48 		"/>
	</g>
	<g>
		<path class="st1" d="M183.47,239.02H0v-12.04h182.97c4.65-0.42,12.34-2,15.38-4.32c0.73-0.56,1.98-1.46,3.63-2.66
			c5.87-4.24,16.78-12.12,26.21-20.42c15.33-13.51,15.78-18.54,15.78-19.07c0-8.98-7.92-10.66-10.33-10.95
			c-4.73,2.25-23.18,15.54-38.4,27.21l-1.62,1.24H104.3v-12.04h85.23c37.31-28.51,41.27-28.51,43.41-28.51
			c7.52,0,23.06,5.64,23.06,23.06c0,10.89-13.61,25.16-46.98,49.26c-1.53,1.1-2.69,1.94-3.37,2.46c-7.11,5.44-20.45,6.66-21.95,6.78
			L183.47,239.02z"/>
	</g>
	<g>
		<path class="st1" d="M163.1,195.47l-3.51-4.89l-3.56-4.85c0.24-0.18,5.89-4.52,5.89-12.27c0-5.31-2.72-8.49-4.3-9.89h-82.7
			l-32.68,18.08H0v-12.04h39.12l32.68-18.08h89.38l1.39,0.8c4.22,2.42,11.37,9.59,11.37,21.13
			C173.95,187.51,163.54,195.15,163.1,195.47z"/>
	</g>
</g>
</svg>
