<svg width="16" height="16" viewBox="0 0 16 16" fill="none" xmlns="http://www.w3.org/2000/svg">
<path fill-rule="evenodd" clip-rule="evenodd" d="M3.33268 1.99935H2.66602C1.93268 1.99935 1.33268 2.59935 1.33268 3.33268V13.9993C1.33268 14.7327 1.93268 15.3327 2.66602 15.3327H13.3327C14.066 15.3327 14.666 14.7327 14.666 13.9993V3.33268C14.666 2.59935 14.066 1.99935 13.3327 1.99935H12.666V1.33268C12.666 0.966016 12.366 0.666016 11.9993 0.666016C11.6327 0.666016 11.3327 0.966016 11.3327 1.33268V1.99935H4.66602V1.33268C4.66602 0.966016 4.36602 0.666016 3.99935 0.666016C3.63268 0.666016 3.33268 0.966016 3.33268 1.33268V1.99935ZM12.666 13.9993H3.33268C2.96602 13.9993 2.66602 13.6993 2.66602 13.3327V5.33268H13.3327V13.3327C13.3327 13.6993 13.0327 13.9993 12.666 13.9993Z" fill="#64748B"/>
</svg>
