<?xml version="1.0" encoding="utf-8"?>
<!-- Generator: Adobe Illustrator 25.3.1, SVG Export Plug-In . SVG Version: 6.00 Build 0)  -->
<svg version="1.1" id="Layer_1" xmlns="http://www.w3.org/2000/svg" xmlns:xlink="http://www.w3.org/1999/xlink" x="0px" y="0px"
	 viewBox="0 0 256 256" style="enable-background:new 0 0 256 256;" xml:space="preserve">
<style type="text/css">
	.st0{fill:none;stroke:#E30613;stroke-width:7.6663;stroke-miterlimit:10;}
	.st1{fill:#142137;}
	.st2{fill:#D6B36A;}
	.st3{fill:#DFE1E5;}
	.st4{fill:none;stroke:#D6B36A;stroke-width:14.2432;stroke-miterlimit:10;}
	.st5{fill:none;stroke:#DFE1E5;stroke-width:14.2432;stroke-miterlimit:10;}
	.st6{fill:none;stroke:#D6B36A;stroke-width:37.7622;stroke-miterlimit:10;}
	.st7{fill:none;stroke:#DFE1E5;stroke-width:37.7622;stroke-miterlimit:10;}
	.st8{fill:none;stroke:#D6B36A;stroke-width:15.1671;stroke-miterlimit:10;}
	.st9{fill:none;stroke:#DFE1E5;stroke-width:15.1671;stroke-miterlimit:10;}
	.st10{fill:none;stroke:#D6B36A;stroke-width:10.1827;stroke-miterlimit:10;}
	.st11{fill:none;stroke:#DFE1E5;stroke-width:10.1827;stroke-miterlimit:10;}
	.st12{fill:none;stroke:#D6B36A;stroke-width:12;stroke-miterlimit:10;}
	.st13{fill:none;stroke:#DFE1E5;stroke-width:12;stroke-miterlimit:10;}
	.st14{fill:none;stroke:#DFE1E5;stroke-width:22;stroke-miterlimit:10;}
	.st15{fill:none;stroke:#D6B36A;stroke-width:22;stroke-miterlimit:10;}
	.st16{fill:none;stroke:#E30613;stroke-width:7.831;stroke-miterlimit:10;}
</style>
<path class="st1" d="M254.97,56.25c-0.47-10.16-3.85-19.22-10.92-26.65c-5.51-5.79-11.32-11.31-16.86-17.08
	C221.52,6.6,215.39,1.55,207.04,0c-2.33,0-4.67,0-7,0c-5.44,1.6-10.48,3.93-14.56,8.01c-11.62,11.59-23.58,22.87-34.59,35.05
	c-8.61,9.52-8.52,22.56-0.16,32.27c6.21,7.21,13.07,13.79,20.03,20.24c1.28,1.18,1.4,2.07,0.67,3.59
	c-5.26,10.98-12.36,20.69-20.35,29.79c-15.04,17.14-31.66,32.37-52.21,42.81c-1.44,0.73-2.21,0.66-3.35-0.48
	c-6.69-6.62-12.99-13.65-20.15-19.79c-10.1-8.66-23.48-8.62-33.04,0.58c-11.89,11.44-23.48,23.19-35,35
	c-5.34,5.48-7.97,12.27-7.19,20.03c0.69,6.84,4.16,12.38,8.86,17.19c6,6.13,12.27,12,18.02,18.38c3.14,3.48,6.87,6.27,11.03,8.48
	c9.71,5.14,20.03,5.56,30.63,4.15c15.77-2.09,30.44-7.58,44.61-14.5c33.02-16.14,61.65-38.06,85.83-65.77
	c20.06-22.99,36.78-48.03,47.67-76.72C251.94,84.75,255.65,70.92,254.97,56.25z M235.88,90.24c-7.08,20.07-17.45,38.39-29.95,55.55
	c-14.7,20.18-31.5,38.37-51.18,53.78c-22.01,17.23-45.8,31.34-72.66,39.73c-7.49,2.34-15.2,3.66-23.06,3.84
	c-9.19,0.22-16.98-2.96-23.13-9.8c-5.25-5.83-10.95-11.2-16.43-16.8c-0.64-0.65-1.3-1.3-1.9-1.99c-6.21-7.13-6.1-13.21,0.59-19.94
	c10.68-10.77,21.43-21.47,32.21-32.14c5.4-5.35,11.7-5.62,17.29-0.38c6.87,6.44,13.41,13.22,20.09,19.85
	c5.27,5.23,9.13,5.7,15.66,2.31c30.63-15.88,54.23-39.36,73.33-67.7c3.21-4.76,5.74-9.92,7.97-15.21c2.18-5.16,1.3-9.24-3.06-13.29
	c-6.16-5.74-12.09-11.71-18.01-17.69c-8.05-8.14-8.06-13.89-0.01-21.96c9.77-9.8,19.56-19.57,29.34-29.36
	c0.65-0.65,1.3-1.29,1.99-1.9c6.11-5.43,12.02-5.75,17.99-0.17c8.03,7.5,16.01,15.1,23.16,23.48c3.96,4.65,5.53,10.36,5.87,16.38
	C242.63,68.45,239.69,79.45,235.88,90.24z"/>
</svg>
