<?xml version="1.0" encoding="utf-8"?>
<!-- Generator: Adobe Illustrator 25.3.1, SVG Export Plug-In . SVG Version: 6.00 Build 0)  -->
<svg version="1.1" id="Layer_1" xmlns="http://www.w3.org/2000/svg" xmlns:xlink="http://www.w3.org/1999/xlink" x="0px" y="0px"
	 viewBox="0 0 256 256" style="enable-background:new 0 0 256 256;" xml:space="preserve">
<style type="text/css">
	.st0{fill:none;stroke:#E30613;stroke-width:7.6663;stroke-miterlimit:10;}
	.st1{fill:#142137;}
	.st2{fill:#D6B36A;}
	.st3{fill:#DFE1E5;}
	.st4{fill:none;stroke:#D6B36A;stroke-width:14.2432;stroke-miterlimit:10;}
	.st5{fill:none;stroke:#DFE1E5;stroke-width:14.2432;stroke-miterlimit:10;}
	.st6{fill:none;stroke:#D6B36A;stroke-width:37.7622;stroke-miterlimit:10;}
	.st7{fill:none;stroke:#DFE1E5;stroke-width:37.7622;stroke-miterlimit:10;}
	.st8{fill:none;stroke:#D6B36A;stroke-width:15.1671;stroke-miterlimit:10;}
	.st9{fill:none;stroke:#DFE1E5;stroke-width:15.1671;stroke-miterlimit:10;}
	.st10{fill:none;stroke:#D6B36A;stroke-width:10.1827;stroke-miterlimit:10;}
	.st11{fill:none;stroke:#DFE1E5;stroke-width:10.1827;stroke-miterlimit:10;}
	.st12{fill:none;stroke:#D6B36A;stroke-width:12;stroke-miterlimit:10;}
	.st13{fill:none;stroke:#DFE1E5;stroke-width:12;stroke-miterlimit:10;}
	.st14{fill:none;stroke:#DFE1E5;stroke-width:22;stroke-miterlimit:10;}
	.st15{fill:none;stroke:#D6B36A;stroke-width:22;stroke-miterlimit:10;}
	.st16{fill:none;stroke:#E30613;stroke-width:7.831;stroke-miterlimit:10;}
</style>
<g>
	<g>
		<path class="st1" d="M227.15,184.42H75.18L35.46,18.49H6.13C2.74,18.49,0,15.75,0,12.37s2.74-6.13,6.13-6.13h39l39.72,165.92
			h142.3c3.38,0,6.13,2.74,6.13,6.13C233.28,181.67,230.53,184.42,227.15,184.42z"/>
	</g>
	<g>
		<path class="st1" d="M232.09,145.55H74.46c-3.38,0-6.13-2.74-6.13-6.13c0-3.38,2.74-6.13,6.13-6.13h147.74l18.58-85.44H52.04
			c-3.39,0-6.13-2.74-6.13-6.13s2.74-6.13,6.13-6.13H256L232.09,145.55z"/>
	</g>
	<g>
		<path class="st1" d="M109.38,249.76c-14.57,0-26.42-11.85-26.42-26.42c0-14.57,11.85-26.42,26.42-26.42
			c14.57,0,26.42,11.85,26.42,26.42C135.79,237.91,123.94,249.76,109.38,249.76z M109.38,209.19c-7.81,0-14.16,6.35-14.16,14.16
			c0,7.81,6.35,14.16,14.16,14.16c7.81,0,14.16-6.35,14.16-14.16C123.53,215.54,117.18,209.19,109.38,209.19z"/>
	</g>
	<g>
		<path class="st1" d="M198.16,249.76c-14.57,0-26.42-11.85-26.42-26.42c0-14.57,11.85-26.42,26.42-26.42
			c14.57,0,26.42,11.85,26.42,26.42C224.57,237.91,212.72,249.76,198.16,249.76z M198.16,209.19c-7.81,0-14.16,6.35-14.16,14.16
			c0,7.81,6.35,14.16,14.16,14.16c7.81,0,14.16-6.35,14.16-14.16C212.32,215.54,205.96,209.19,198.16,209.19z"/>
	</g>
</g>
</svg>
