<svg width="18" height="18" viewBox="0 0 18 18" fill="none" xmlns="http://www.w3.org/2000/svg">
<path d="M1.12461 1.13787C1.35815 0.903807 1.67521 0.772266 2.00586 0.772266C2.3365 0.772266 2.65357 0.903807 2.88711 1.13787L8.99961 7.23787L15.1121 1.12537C15.3456 0.891307 15.6627 0.759766 15.9934 0.759766C16.324 0.759766 16.6411 0.891307 16.8746 1.12537C17.3621 1.61287 17.3621 2.40037 16.8746 2.88787L10.7621 9.00037L16.8746 15.1129C17.3621 15.6004 17.3621 16.3879 16.8746 16.8754C16.3871 17.3629 15.5996 17.3629 15.1121 16.8754L8.99961 10.7629L2.88711 16.8754C2.39961 17.3629 1.61211 17.3629 1.12461 16.8754C0.637108 16.3879 0.637108 15.6004 1.12461 15.1129L7.23711 9.00037L1.12461 2.88787C0.649609 2.41287 0.649609 1.61287 1.12461 1.13787Z" fill="#97A6BA"/>
</svg>
