<svg width="20" height="20" viewBox="0 0 20 20" fill="none" xmlns="http://www.w3.org/2000/svg">
<path fill-rule="evenodd" clip-rule="evenodd" d="M8.33333 10.8333H3.33333C2.875 10.8333 2.5 10.4583 2.5 10V3.33333C2.5 2.875 2.875 2.5 3.33333 2.5H8.33333C8.79167 2.5 9.16667 2.875 9.16667 3.33333V10C9.16667 10.4583 8.79167 10.8333 8.33333 10.8333ZM8.33333 17.5H3.33333C2.875 17.5 2.5 17.125 2.5 16.6667V13.3333C2.5 12.875 2.875 12.5 3.33333 12.5H8.33333C8.79167 12.5 9.16667 12.875 9.16667 13.3333V16.6667C9.16667 17.125 8.79167 17.5 8.33333 17.5ZM11.6667 17.5H16.6667C17.125 17.5 17.5 17.125 17.5 16.6667V10C17.5 9.54167 17.125 9.16667 16.6667 9.16667H11.6667C11.2083 9.16667 10.8333 9.54167 10.8333 10V16.6667C10.8333 17.125 11.2083 17.5 11.6667 17.5ZM10.8333 6.66667V3.33333C10.8333 2.875 11.2083 2.5 11.6667 2.5H16.6667C17.125 2.5 17.5 2.875 17.5 3.33333V6.66667C17.5 7.125 17.125 7.5 16.6667 7.5H11.6667C11.2083 7.5 10.8333 7.125 10.8333 6.66667Z" fill="#6875F5"/>
</svg>
