<?xml version="1.0" encoding="utf-8"?>
<!-- Generator: Adobe Illustrator 25.3.1, SVG Export Plug-In . SVG Version: 6.00 Build 0)  -->
<svg version="1.1" id="Layer_1" xmlns="http://www.w3.org/2000/svg" xmlns:xlink="http://www.w3.org/1999/xlink" x="0px" y="0px"
	 viewBox="0 0 256 256" style="enable-background:new 0 0 256 256;" xml:space="preserve">
<style type="text/css">
	.st0{fill:none;stroke:#E30613;stroke-width:7.6663;stroke-miterlimit:10;}
	.st1{fill:#142137;}
	.st2{fill:#D6B36A;}
	.st3{fill:#DFE1E5;}
	.st4{fill:none;stroke:#D6B36A;stroke-width:14.2432;stroke-miterlimit:10;}
	.st5{fill:none;stroke:#DFE1E5;stroke-width:14.2432;stroke-miterlimit:10;}
	.st6{fill:none;stroke:#D6B36A;stroke-width:37.7622;stroke-miterlimit:10;}
	.st7{fill:none;stroke:#DFE1E5;stroke-width:37.7622;stroke-miterlimit:10;}
	.st8{fill:none;stroke:#D6B36A;stroke-width:15.1671;stroke-miterlimit:10;}
	.st9{fill:none;stroke:#DFE1E5;stroke-width:15.1671;stroke-miterlimit:10;}
	.st10{fill:none;stroke:#D6B36A;stroke-width:10.1827;stroke-miterlimit:10;}
	.st11{fill:none;stroke:#DFE1E5;stroke-width:10.1827;stroke-miterlimit:10;}
	.st12{fill:none;stroke:#D6B36A;stroke-width:12;stroke-miterlimit:10;}
	.st13{fill:none;stroke:#DFE1E5;stroke-width:12;stroke-miterlimit:10;}
	.st14{fill:none;stroke:#DFE1E5;stroke-width:22;stroke-miterlimit:10;}
	.st15{fill:none;stroke:#D6B36A;stroke-width:22;stroke-miterlimit:10;}
	.st16{fill:none;stroke:#E30613;stroke-width:7.831;stroke-miterlimit:10;}
</style>
<g>
	<g>
		<path class="st1" d="M128,256C57.42,256,0,198.58,0,128S57.42,0,128,0s128,57.42,128,128S198.58,256,128,256z M128,12.06
			C64.07,12.06,12.06,64.07,12.06,128S64.07,243.94,128,243.94c63.93,0,115.94-52.01,115.94-115.94S191.93,12.06,128,12.06z"/>
	</g>
	<g>
		<path class="st1" d="M135.46,161.43h-12.06c0-25.71,13.28-35.16,23.94-42.75c8.29-5.9,14.27-10.16,14.27-20.98
			c0-4.11-1.62-24.63-33.61-24.63c-28.9,0-30.66,21.13-30.76,23.54l-12.06-0.4c0.36-12.17,9.78-35.2,42.82-35.2
			c36.05,0,45.67,23.06,45.67,36.69c0,17.04-10.28,24.35-19.34,30.81C144.2,135.72,135.46,141.95,135.46,161.43z"/>
	</g>
	<g>
		<path class="st1" d="M128.71,195.12c-4.23,0-7.67-3.44-7.67-7.67c0-4.23,3.44-7.67,7.67-7.67c4.23,0,7.67,3.44,7.67,7.67
			C136.39,191.67,132.94,195.12,128.71,195.12z"/>
	</g>
</g>
</svg>
