<?xml version="1.0" encoding="utf-8"?>
<!-- Generator: Adobe Illustrator 25.3.1, SVG Export Plug-In . SVG Version: 6.00 Build 0)  -->
<svg version="1.1" id="Layer_1" xmlns="http://www.w3.org/2000/svg" xmlns:xlink="http://www.w3.org/1999/xlink" x="0px" y="0px"
	 viewBox="0 0 256 256" style="enable-background:new 0 0 256 256;" xml:space="preserve">
<style type="text/css">
	.st0{fill:none;stroke:#E30613;stroke-width:7.6663;stroke-miterlimit:10;}
	.st1{fill:#142137;}
	.st2{fill:#D6B36A;}
	.st3{fill:#DFE1E5;}
	.st4{fill:none;stroke:#D6B36A;stroke-width:14.2432;stroke-miterlimit:10;}
	.st5{fill:none;stroke:#DFE1E5;stroke-width:14.2432;stroke-miterlimit:10;}
	.st6{fill:none;stroke:#D6B36A;stroke-width:37.7622;stroke-miterlimit:10;}
	.st7{fill:none;stroke:#DFE1E5;stroke-width:37.7622;stroke-miterlimit:10;}
	.st8{fill:none;stroke:#D6B36A;stroke-width:15.1671;stroke-miterlimit:10;}
	.st9{fill:none;stroke:#DFE1E5;stroke-width:15.1671;stroke-miterlimit:10;}
	.st10{fill:none;stroke:#D6B36A;stroke-width:10.1827;stroke-miterlimit:10;}
	.st11{fill:none;stroke:#DFE1E5;stroke-width:10.1827;stroke-miterlimit:10;}
	.st12{fill:none;stroke:#D6B36A;stroke-width:12;stroke-miterlimit:10;}
	.st13{fill:none;stroke:#DFE1E5;stroke-width:12;stroke-miterlimit:10;}
	.st14{fill:none;stroke:#DFE1E5;stroke-width:22;stroke-miterlimit:10;}
	.st15{fill:none;stroke:#D6B36A;stroke-width:22;stroke-miterlimit:10;}
	.st16{fill:none;stroke:#E30613;stroke-width:7.831;stroke-miterlimit:10;}
</style>
<g>
	<g>
		<path class="st1" d="M231.62,228.77H24.38C10.94,228.77,0,217.83,0,204.39V51.61c0-13.44,10.94-24.38,24.38-24.38h207.24
			c13.44,0,24.38,10.94,24.38,24.38v152.78C256,217.83,245.06,228.77,231.62,228.77z M24.38,39.29c-6.79,0-12.32,5.53-12.32,12.32
			v152.78c0,6.79,5.53,12.32,12.32,12.32h207.24c6.79,0,12.32-5.53,12.32-12.32V51.61c0-6.79-5.53-12.32-12.32-12.32H24.38z"/>
	</g>
	<g>
		<path class="st1" d="M92.94,140.4c-19.46,0-35.29-15.83-35.29-35.29s15.83-35.29,35.29-35.29s35.29,15.83,35.29,35.29
			S112.4,140.4,92.94,140.4z M92.94,81.88c-12.81,0-23.23,10.42-23.23,23.23s10.42,23.23,23.23,23.23s23.23-10.42,23.23-23.23
			S105.75,81.88,92.94,81.88z"/>
	</g>
	<g>
		<path class="st1" d="M41.92,194.64c-0.27-2.43-2.37-24.13,8.53-36.32c4.59-5.14,10.93-7.85,18.33-7.85
			c9.94,0,15.52,1.32,19.59,2.29c2.35,0.56,4.05,0.96,5.93,0.96v12.06c-3.29,0-5.92-0.62-8.7-1.28c-3.88-0.92-8.28-1.96-16.82-1.96
			c-4.04,0-7.01,1.22-9.34,3.83c-6.25,6.99-6.11,21.81-5.54,26.93L41.92,194.64z"/>
	</g>
	<g>
		<path class="st1" d="M145.07,194.64l-11.98-1.35l5.99,0.68l-5.99-0.67c0.56-5.15,0.67-20.02-5.55-26.96
			c-2.33-2.6-5.3-3.82-9.33-3.82c-8.53,0-12.93,1.04-16.82,1.96c-2.79,0.66-5.42,1.28-8.7,1.28V153.7c1.88,0,3.58-0.4,5.93-0.96
			c4.07-0.97,9.65-2.29,19.59-2.29c7.4,0,13.74,2.72,18.33,7.85C147.44,170.51,145.34,192.2,145.07,194.64z"/>
	</g>
	<g>
		<rect x="159.55" y="85.95" class="st1" width="56.43" height="12.06"/>
	</g>
	<g>
		<rect x="159.55" y="116.47" class="st1" width="56.43" height="12.06"/>
	</g>
	<g>
		<rect x="159.55" y="144.67" class="st1" width="56.43" height="12.06"/>
	</g>
</g>
</svg>
