<?xml version="1.0" encoding="utf-8"?>
<!-- Generator: Adobe Illustrator 25.3.1, SVG Export Plug-In . SVG Version: 6.00 Build 0)  -->
<svg version="1.1" id="Layer_1" xmlns="http://www.w3.org/2000/svg" xmlns:xlink="http://www.w3.org/1999/xlink" x="0px" y="0px"
	 viewBox="0 0 256 256" style="enable-background:new 0 0 256 256;" xml:space="preserve">
<style type="text/css">
	.st0{fill:none;stroke:#E30613;stroke-width:7.6663;stroke-miterlimit:10;}
	.st1{fill:#142137;}
	.st2{fill:#D6B36A;}
	.st3{fill:#DFE1E5;}
	.st4{fill:none;stroke:#D6B36A;stroke-width:14.2432;stroke-miterlimit:10;}
	.st5{fill:none;stroke:#DFE1E5;stroke-width:14.2432;stroke-miterlimit:10;}
	.st6{fill:none;stroke:#D6B36A;stroke-width:37.7622;stroke-miterlimit:10;}
	.st7{fill:none;stroke:#DFE1E5;stroke-width:37.7622;stroke-miterlimit:10;}
	.st8{fill:none;stroke:#D6B36A;stroke-width:15.1671;stroke-miterlimit:10;}
	.st9{fill:none;stroke:#DFE1E5;stroke-width:15.1671;stroke-miterlimit:10;}
	.st10{fill:none;stroke:#D6B36A;stroke-width:10.1827;stroke-miterlimit:10;}
	.st11{fill:none;stroke:#DFE1E5;stroke-width:10.1827;stroke-miterlimit:10;}
	.st12{fill:none;stroke:#D6B36A;stroke-width:12;stroke-miterlimit:10;}
	.st13{fill:none;stroke:#DFE1E5;stroke-width:12;stroke-miterlimit:10;}
	.st14{fill:none;stroke:#DFE1E5;stroke-width:22;stroke-miterlimit:10;}
	.st15{fill:none;stroke:#D6B36A;stroke-width:22;stroke-miterlimit:10;}
	.st16{fill:none;stroke:#E30613;stroke-width:7.831;stroke-miterlimit:10;}
</style>
<g>
	<g>
		<path class="st1" d="M53.73,220.94H10.4c-5.73,0-10.4-4.66-10.4-10.4V45.12c0-5.73,4.66-10.4,10.4-10.4h43.33
			c5.73,0,10.4,4.66,10.4,10.4v165.42C64.13,216.28,59.46,220.94,53.73,220.94z M10.4,43.73c-0.77,0-1.39,0.62-1.39,1.39v165.42
			c0,0.77,0.62,1.39,1.39,1.39h43.33c0.77,0,1.39-0.62,1.39-1.39V45.12c0-0.77-0.62-1.39-1.39-1.39H10.4z"/>
	</g>
	<g>
		<path class="st1" d="M108.85,220.94H65.52c-5.73,0-10.4-4.66-10.4-10.4V45.12c0-5.73,4.66-10.4,10.4-10.4h43.33
			c5.73,0,10.4,4.66,10.4,10.4v165.42C119.25,216.28,114.59,220.94,108.85,220.94z M65.52,43.73c-0.77,0-1.39,0.62-1.39,1.39v165.42
			c0,0.77,0.62,1.39,1.39,1.39h43.33c0.77,0,1.39-0.62,1.39-1.39V45.12c0-0.77-0.62-1.39-1.39-1.39H65.52z"/>
	</g>
	<g>
		<rect x="4.5" y="65.89" class="st1" width="110.24" height="9.01"/>
	</g>
	<g>
		<rect x="4.58" y="180.63" class="st1" width="110.24" height="9.01"/>
	</g>
	<g>
		<path class="st1" d="M204.2,221.47c-1.04,0-3.14-0.34-4.55-2.78L113.71,69.37c-1.64-2.85-0.34-5.07,0.1-5.68
			c2-2.8,5.18-2.18,7.98-1.62c0.94,0.19,2.64,0.52,3.39,0.49l32.43-18.73c0.41-0.65,0.96-2.28,1.27-3.18
			c0.92-2.7,1.97-5.76,5.39-6.1c0.74-0.08,3.33-0.09,4.97,2.76l85.94,149.31c1.65,2.85,0.34,5.07-0.1,5.68
			c-2,2.8-5.18,2.18-7.98,1.62c-0.94-0.19-2.66-0.52-3.39-0.49l-32.43,18.73c-0.41,0.65-0.96,2.28-1.27,3.18
			c-0.92,2.7-1.97,5.76-5.39,6.1C204.52,221.46,204.37,221.47,204.2,221.47z M125.36,71.55l78.24,135.94
			c0.72-1.18,1.63-2.23,2.85-2.93l0,0l33.1-19.11c1.22-0.71,2.59-0.97,3.99-1L165.3,48.51c-0.72,1.18-1.63,2.23-2.85,2.93
			l-33.1,19.11C128.13,71.26,126.76,71.53,125.36,71.55z"/>
	</g>
</g>
</svg>
