<?xml version="1.0" encoding="utf-8"?>
<!-- Generator: Adobe Illustrator 25.3.1, SVG Export Plug-In . SVG Version: 6.00 Build 0)  -->
<svg version="1.1" id="Layer_1" xmlns="http://www.w3.org/2000/svg" xmlns:xlink="http://www.w3.org/1999/xlink" x="0px" y="0px"
	 viewBox="0 0 256 256" style="enable-background:new 0 0 256 256;" xml:space="preserve">
<style type="text/css">
	.st0{fill:none;stroke:#E30613;stroke-width:7.6663;stroke-miterlimit:10;}
	.st1{fill:#142137;}
	.st2{fill:#D6B36A;}
	.st3{fill:#DFE1E5;}
	.st4{fill:none;stroke:#D6B36A;stroke-width:14.2432;stroke-miterlimit:10;}
	.st5{fill:none;stroke:#DFE1E5;stroke-width:14.2432;stroke-miterlimit:10;}
	.st6{fill:none;stroke:#D6B36A;stroke-width:37.7622;stroke-miterlimit:10;}
	.st7{fill:none;stroke:#DFE1E5;stroke-width:37.7622;stroke-miterlimit:10;}
	.st8{fill:none;stroke:#D6B36A;stroke-width:15.1671;stroke-miterlimit:10;}
	.st9{fill:none;stroke:#DFE1E5;stroke-width:15.1671;stroke-miterlimit:10;}
	.st10{fill:none;stroke:#D6B36A;stroke-width:10.1827;stroke-miterlimit:10;}
	.st11{fill:none;stroke:#DFE1E5;stroke-width:10.1827;stroke-miterlimit:10;}
	.st12{fill:none;stroke:#D6B36A;stroke-width:12;stroke-miterlimit:10;}
	.st13{fill:none;stroke:#DFE1E5;stroke-width:12;stroke-miterlimit:10;}
	.st14{fill:none;stroke:#DFE1E5;stroke-width:22;stroke-miterlimit:10;}
	.st15{fill:none;stroke:#D6B36A;stroke-width:22;stroke-miterlimit:10;}
	.st16{fill:none;stroke:#E30613;stroke-width:7.831;stroke-miterlimit:10;}
</style>
<g>
	<g>
		<path class="st1" d="M128,140.16c-24.92,0-45.2-20.28-45.2-45.2s20.28-45.2,45.2-45.2s45.2,20.28,45.2,45.2
			S152.92,140.16,128,140.16z M128,64.93c-16.56,0-30.03,13.47-30.03,30.03s13.47,30.03,30.03,30.03s30.03-13.47,30.03-30.03
			S144.56,64.93,128,64.93z"/>
	</g>
	<g>
		<path class="st1" d="M128.01,255.78l-5.88-7.18c-3.09-3.77-75.4-92.36-84.5-125.08c-4.4-11.84-4.39-18.59-4.38-27.1l0-1.46
			c0-52.24,42.5-94.74,94.74-94.74s94.74,42.5,94.74,94.74c0,12.32-2.33,24.31-6.93,35.64c-11.25,31.18-79.05,114.46-81.93,118
			L128.01,255.78z M128,15.38c-43.88,0-79.58,35.7-79.58,79.58l0,1.48c-0.01,8.14-0.02,12.62,3.53,22.08l0.23,0.71
			c5.93,22.24,52.26,83.12,75.8,112.49c16.92-21.19,65.18-82.76,73.6-106.39l0.12-0.32c3.9-9.54,5.87-19.66,5.87-30.06
			C207.58,51.08,171.88,15.38,128,15.38z"/>
	</g>
</g>
</svg>
