<?xml version="1.0" encoding="utf-8"?>
<!-- Generator: Adobe Illustrator 25.3.1, SVG Export Plug-In . SVG Version: 6.00 Build 0)  -->
<svg version="1.1" id="Layer_1" xmlns="http://www.w3.org/2000/svg" xmlns:xlink="http://www.w3.org/1999/xlink" x="0px" y="0px"
	 viewBox="0 0 256 256" style="enable-background:new 0 0 256 256;" xml:space="preserve">
<style type="text/css">
	.st0{fill:none;stroke:#E30613;stroke-width:7.6663;stroke-miterlimit:10;}
	.st1{fill:#142137;}
	.st2{fill:#D6B36A;}
	.st3{fill:#DFE1E5;}
	.st4{fill:none;stroke:#D6B36A;stroke-width:14.2432;stroke-miterlimit:10;}
	.st5{fill:none;stroke:#DFE1E5;stroke-width:14.2432;stroke-miterlimit:10;}
	.st6{fill:none;stroke:#D6B36A;stroke-width:37.7622;stroke-miterlimit:10;}
	.st7{fill:none;stroke:#DFE1E5;stroke-width:37.7622;stroke-miterlimit:10;}
	.st8{fill:none;stroke:#D6B36A;stroke-width:15.1671;stroke-miterlimit:10;}
	.st9{fill:none;stroke:#DFE1E5;stroke-width:15.1671;stroke-miterlimit:10;}
	.st10{fill:none;stroke:#D6B36A;stroke-width:10.1827;stroke-miterlimit:10;}
	.st11{fill:none;stroke:#DFE1E5;stroke-width:10.1827;stroke-miterlimit:10;}
	.st12{fill:none;stroke:#D6B36A;stroke-width:12;stroke-miterlimit:10;}
	.st13{fill:none;stroke:#DFE1E5;stroke-width:12;stroke-miterlimit:10;}
	.st14{fill:none;stroke:#DFE1E5;stroke-width:22;stroke-miterlimit:10;}
	.st15{fill:none;stroke:#D6B36A;stroke-width:22;stroke-miterlimit:10;}
	.st16{fill:none;stroke:#E30613;stroke-width:7.831;stroke-miterlimit:10;}
</style>
<g>
	<g>
		<g>
			<path class="st1" d="M160.05,185.44l-5.43-5.43c-0.89-0.89-0.89-2.33,0-3.22l23.01-23.01c0.89-0.89,0.89-2.33,0-3.22
				l-23.02-23.02c-0.89-0.89-0.89-2.33,0-3.22l5.43-5.43c0.89-0.89,2.33-0.89,3.22,0l31.67,31.67c0.89,0.89,0.89,2.33,0,3.22
				l-31.66,31.66C162.38,186.33,160.94,186.33,160.05,185.44z"/>
		</g>
	</g>
	<g>
		<g>
			<path class="st1" d="M96.57,118.89l5.43,5.43c0.89,0.89,0.89,2.33,0,3.22l-23.01,23.01c-0.89,0.89-0.89,2.33,0,3.22l23.02,23.02
				c0.89,0.89,0.89,2.33,0,3.22l-5.43,5.43c-0.89,0.89-2.33,0.89-3.22,0l-31.67-31.67c-0.89-0.89-0.89-2.33,0-3.22l31.66-31.66
				C94.23,118,95.68,118,96.57,118.89z"/>
		</g>
	</g>
	<g>
		
			<rect x="74.01" y="147.94" transform="matrix(0.291 -0.9567 0.9567 0.291 -56.3515 230.0195)" class="st1" width="106.01" height="10.18"/>
	</g>
	<g>
		<path class="st1" d="M220.43,255.77H35.57V0.23h125.65l59.2,54.39V255.77z M45.76,245.59h164.49V59.09l-52.99-48.68H45.76V245.59z
			"/>
	</g>
	<g>
		<polygon class="st1" points="212.14,71.52 145.25,71.52 145.25,5.32 155.44,5.32 155.44,61.34 212.14,61.34 		"/>
	</g>
</g>
</svg>
