<svg width="7" height="24" viewBox="0 0 7 24" fill="none" xmlns="http://www.w3.org/2000/svg">
<path fill-rule="evenodd" clip-rule="evenodd" d="M3.49935 6C5.19518 6 6.58269 4.65 6.58269 3C6.58269 1.35 5.19518 0 3.49935 0C1.80352 0 0.416016 1.35 0.416016 3C0.416016 4.65 1.80352 6 3.49935 6ZM3.49935 9C1.80352 9 0.416016 10.35 0.416016 12C0.416016 13.65 1.80352 15 3.49935 15C5.19518 15 6.58269 13.65 6.58269 12C6.58269 10.35 5.19518 9 3.49935 9ZM0.416016 21C0.416016 19.35 1.80352 18 3.49935 18C5.19518 18 6.58269 19.35 6.58269 21C6.58269 22.65 5.19518 24 3.49935 24C1.80352 24 0.416016 22.65 0.416016 21Z" fill="#FFF6F6"/>
</svg>
