<svg width="10" height="11" viewBox="0 0 10 11" fill="none" xmlns="http://www.w3.org/2000/svg">
<path d="M1.00033 6.16732H4.33366V9.50065C4.33366 9.86732 4.63366 10.1673 5.00033 10.1673C5.36699 10.1673 5.66699 9.86732 5.66699 9.50065V6.16732H9.00033C9.36699 6.16732 9.66699 5.86732 9.66699 5.50065C9.66699 5.13398 9.36699 4.83398 9.00033 4.83398H5.66699V1.50065C5.66699 1.13398 5.36699 0.833984 5.00033 0.833984C4.63366 0.833984 4.33366 1.13398 4.33366 1.50065V4.83398H1.00033C0.633658 4.83398 0.333658 5.13398 0.333658 5.50065C0.333658 5.86732 0.633658 6.16732 1.00033 6.16732Z" fill="#565B66"/>
</svg>
