<?xml version="1.0" encoding="utf-8"?>
<!-- Generator: Adobe Illustrator 25.3.1, SVG Export Plug-In . SVG Version: 6.00 Build 0)  -->
<svg version="1.1" id="Layer_1" xmlns="http://www.w3.org/2000/svg" xmlns:xlink="http://www.w3.org/1999/xlink" x="0px" y="0px"
	 viewBox="0 0 256 256" style="enable-background:new 0 0 256 256;" xml:space="preserve">
<style type="text/css">
	.st0{fill:none;stroke:#E30613;stroke-width:7.6663;stroke-miterlimit:10;}
	.st1{fill:#142137;}
	.st2{fill:#D6B36A;}
	.st3{fill:#DFE1E5;}
	.st4{fill:none;stroke:#D6B36A;stroke-width:14.2432;stroke-miterlimit:10;}
	.st5{fill:none;stroke:#DFE1E5;stroke-width:14.2432;stroke-miterlimit:10;}
	.st6{fill:none;stroke:#D6B36A;stroke-width:37.7622;stroke-miterlimit:10;}
	.st7{fill:none;stroke:#DFE1E5;stroke-width:37.7622;stroke-miterlimit:10;}
	.st8{fill:none;stroke:#D6B36A;stroke-width:15.1671;stroke-miterlimit:10;}
	.st9{fill:none;stroke:#DFE1E5;stroke-width:15.1671;stroke-miterlimit:10;}
	.st10{fill:none;stroke:#D6B36A;stroke-width:10.1827;stroke-miterlimit:10;}
	.st11{fill:none;stroke:#DFE1E5;stroke-width:10.1827;stroke-miterlimit:10;}
	.st12{fill:none;stroke:#D6B36A;stroke-width:12;stroke-miterlimit:10;}
	.st13{fill:none;stroke:#DFE1E5;stroke-width:12;stroke-miterlimit:10;}
	.st14{fill:none;stroke:#DFE1E5;stroke-width:22;stroke-miterlimit:10;}
	.st15{fill:none;stroke:#D6B36A;stroke-width:22;stroke-miterlimit:10;}
	.st16{fill:none;stroke:#E30613;stroke-width:7.831;stroke-miterlimit:10;}
</style>
<g>
	<g>
		<path class="st1" d="M128,256C57.42,256,0,198.58,0,128C0,57.42,57.42,0,128,0c70.58,0,128,57.42,128,128
			C256,198.58,198.58,256,128,256z M128,12.09c-63.91,0-115.91,52-115.91,115.91s52,115.91,115.91,115.91s115.91-52,115.91-115.91
			S191.91,12.09,128,12.09z"/>
	</g>
	<g>
		<path class="st1" d="M125.81,142.98c-23.38,0-42.4-19.02-42.4-42.4s19.02-42.4,42.4-42.4s42.4,19.02,42.4,42.4
			S149.19,142.98,125.81,142.98z M125.81,70.28c-16.71,0-30.31,13.6-30.31,30.31s13.6,30.31,30.31,30.31
			c16.71,0,30.31-13.6,30.31-30.31S142.52,70.28,125.81,70.28z"/>
	</g>
	<g>
		<path class="st1" d="M53.58,220.96l-11.84-2.43c0.48-2.36,12.32-57.86,54.44-57.86c7.13,0,11.13,1.68,15,3.3
			c4.34,1.82,8.83,3.71,20.47,3.71v12.09c-14.07,0-20.21-2.58-25.15-4.65c-3.39-1.42-5.63-2.36-10.33-2.36
			C63.93,172.76,53.68,220.48,53.58,220.96z"/>
	</g>
	<g>
		<path class="st1" d="M202.42,220.97c-0.1-0.48-10.35-48.2-42.6-48.2c-4.7,0-6.94,0.94-10.33,2.36
			c-4.94,2.07-11.08,4.65-25.15,4.65v-12.09c11.64,0,16.13-1.88,20.47-3.71c3.87-1.62,7.87-3.3,15.01-3.3
			c42.11,0,53.96,55.5,54.44,57.86L202.42,220.97z"/>
	</g>
</g>
</svg>
