<?xml version="1.0" encoding="utf-8"?>
<!-- Generator: Adobe Illustrator 25.3.1, SVG Export Plug-In . SVG Version: 6.00 Build 0)  -->
<svg version="1.1" id="Layer_1" xmlns="http://www.w3.org/2000/svg" xmlns:xlink="http://www.w3.org/1999/xlink" x="0px" y="0px"
	 viewBox="0 0 256 256" style="enable-background:new 0 0 256 256;" xml:space="preserve">
<style type="text/css">
	.st0{fill:none;stroke:#E30613;stroke-width:7.6663;stroke-miterlimit:10;}
	.st1{fill:#142137;}
	.st2{fill:#D6B36A;}
	.st3{fill:#DFE1E5;}
	.st4{fill:none;stroke:#D6B36A;stroke-width:14.2432;stroke-miterlimit:10;}
	.st5{fill:none;stroke:#DFE1E5;stroke-width:14.2432;stroke-miterlimit:10;}
	.st6{fill:none;stroke:#D6B36A;stroke-width:37.7622;stroke-miterlimit:10;}
	.st7{fill:none;stroke:#DFE1E5;stroke-width:37.7622;stroke-miterlimit:10;}
	.st8{fill:none;stroke:#D6B36A;stroke-width:15.1671;stroke-miterlimit:10;}
	.st9{fill:none;stroke:#DFE1E5;stroke-width:15.1671;stroke-miterlimit:10;}
	.st10{fill:none;stroke:#D6B36A;stroke-width:10.1827;stroke-miterlimit:10;}
	.st11{fill:none;stroke:#DFE1E5;stroke-width:10.1827;stroke-miterlimit:10;}
	.st12{fill:none;stroke:#D6B36A;stroke-width:12;stroke-miterlimit:10;}
	.st13{fill:none;stroke:#DFE1E5;stroke-width:12;stroke-miterlimit:10;}
	.st14{fill:none;stroke:#DFE1E5;stroke-width:22;stroke-miterlimit:10;}
	.st15{fill:none;stroke:#D6B36A;stroke-width:22;stroke-miterlimit:10;}
	.st16{fill:none;stroke:#E30613;stroke-width:7.831;stroke-miterlimit:10;}
</style>
<g>
	<g>
		<path class="st1" d="M173,83.51c-11.14,0-20.2-9.06-20.2-20.2c0-11.14,9.06-20.2,20.2-20.2c11.14,0,20.2,9.06,20.2,20.2
			C193.2,74.45,184.14,83.51,173,83.51z M173,55.14c-4.51,0-8.17,3.67-8.17,8.17c0,4.5,3.67,8.17,8.17,8.17
			c4.5,0,8.17-3.67,8.17-8.17C181.17,58.81,177.51,55.14,173,55.14z"/>
	</g>
	<g>
		<path class="st1" d="M137.18,247.33l-8.51-8.51l110.06-110.06c3.37-3.37,5.23-7.86,5.23-12.62V29.47H256v86.67
			c0,7.98-3.11,15.49-8.75,21.13L137.18,247.33z"/>
	</g>
	<g>
		<path class="st1" d="M101.22,235.41c-5.3,0-10.59-2.02-14.62-6.05L6.04,148.81c-8.05-8.05-8.06-21.16-0.02-29.22L110.57,14.75
			c3.85-3.86,9.19-6.08,14.64-6.08h81.32c11.4,0,20.68,9.28,20.68,20.68v80.08c0,5.52-2.15,10.71-6.06,14.62L115.84,229.36
			C111.81,233.39,106.51,235.41,101.22,235.41z M125.21,20.7c-2.28,0-4.51,0.93-6.12,2.54L14.54,128.08
			c-3.36,3.37-3.36,8.85,0.01,12.22l80.55,80.55c1.63,1.63,3.81,2.53,6.11,2.53c2.31,0,4.48-0.9,6.12-2.53l105.31-105.31
			c1.63-1.63,2.53-3.81,2.53-6.11V29.35c0-4.77-3.88-8.65-8.65-8.65H125.21z"/>
	</g>
</g>
</svg>
