<svg width="18" height="16" viewBox="0 0 18 16" fill="none" xmlns="http://www.w3.org/2000/svg">
<path fill-rule="evenodd" clip-rule="evenodd" d="M5.56587 10.7805L9.71337 14.9355C10.1484 15.378 10.8534 15.378 11.2959 14.943C11.5659 14.673 11.6784 14.2905 11.6034 13.9155L10.8909 10.4805H15.1284C16.7409 10.4805 17.8284 8.83047 17.1909 7.34547L14.7459 1.63797C14.5134 1.09047 13.9734 0.730469 13.3734 0.730469H6.63087C5.80587 0.730469 5.13087 1.40547 5.13087 2.23047V9.72297C5.13087 10.1205 5.28837 10.503 5.56587 10.7805ZM3.62339 2.23047C3.62339 1.40547 2.94839 0.730469 2.12339 0.730469C1.29839 0.730469 0.623394 1.40547 0.623394 2.23047V8.23047C0.623394 9.05547 1.29839 9.73047 2.12339 9.73047C2.94839 9.73047 3.62339 9.05547 3.62339 8.23047V2.23047Z" fill="#97A6BA"/>
</svg>
