<svg width="18" height="16" viewBox="0 0 18 16" fill="none" xmlns="http://www.w3.org/2000/svg">
<path fill-rule="evenodd" clip-rule="evenodd" d="M12.4429 5.21829L8.28793 1.06329C7.85293 0.620787 7.14793 0.620787 6.70543 1.05579C6.43543 1.32579 6.32293 1.70829 6.39793 2.08329L7.11043 5.51829H2.87293C1.26043 5.51829 0.17293 7.16829 0.802931 8.65329L3.24793 14.3608C3.48793 14.9083 4.02793 15.2683 4.62793 15.2683H11.3779C12.2029 15.2683 12.8779 14.5933 12.8779 13.7683V6.27579C12.8779 5.87829 12.7204 5.49579 12.4429 5.21829ZM14.3779 13.7683C14.3779 14.5933 15.0529 15.2683 15.8779 15.2683C16.7029 15.2683 17.3779 14.5933 17.3779 13.7683V7.76828C17.3779 6.94328 16.7029 6.26828 15.8779 6.26828C15.0529 6.26828 14.3779 6.94328 14.3779 7.76828V13.7683Z" fill="#2D9CDB"/>
</svg>
